<?xml version="1.0" encoding="utf-8"?>
<!-- Generator: Adobe Illustrator 19.2.1, SVG Export Plug-In . SVG Version: 6.00 Build 0)  -->
<!DOCTYPE svg PUBLIC "-//W3C//DTD SVG 1.1//EN" "http://www.w3.org/Graphics/SVG/1.1/DTD/svg11.dtd">
<svg version="1.1" id="Layer_1" xmlns="http://www.w3.org/2000/svg" xmlns:xlink="http://www.w3.org/1999/xlink" x="0px" y="0px"
	 viewBox="0 0 602.8 245.3" style="enable-background:new 0 0 602.8 245.3;" xml:space="preserve">
<style type="text/css">
	.st0{fill:#1B1464;}
</style>
<rect x="47.7" y="84.9" transform="matrix(0.942 -0.3356 0.3356 0.942 -38.2986 68.2096)" class="st0" width="260.9" height="120.1"/>
<rect x="8.4" y="25.6" transform="matrix(0.9849 -0.1734 0.1734 0.9849 -12.7434 25.3795)" class="st0" width="260.9" height="120.1"/>
<rect x="109.7" y="16.3" transform="matrix(-0.9926 -0.1211 0.1211 -0.9926 469.291 181.1268)" class="st0" width="260.9" height="120.1"/>
<rect x="273.6" y="104.7" transform="matrix(0.9849 -0.1734 0.1734 0.9849 -21.5311 70.0132)" class="st0" width="232.7" height="107.1"/>
<rect x="273" y="41.3" transform="matrix(0.9206 0.3905 -0.3905 0.9206 67.9317 -144.5005)" class="st0" width="232.7" height="107.1"/>
<rect x="358" y="62.4" transform="matrix(-0.8378 -0.546 0.546 -0.8378 808.4106 472.1741)" class="st0" width="232.7" height="107.1"/>
</svg>
