<?xml version="1.0" encoding="utf-8"?>
<!-- Generator: Adobe Illustrator 19.2.1, SVG Export Plug-In . SVG Version: 6.00 Build 0)  -->
<!DOCTYPE svg PUBLIC "-//W3C//DTD SVG 1.1//EN" "http://www.w3.org/Graphics/SVG/1.1/DTD/svg11.dtd">
<svg version="1.1" id="Layer_1" xmlns="http://www.w3.org/2000/svg" xmlns:xlink="http://www.w3.org/1999/xlink" x="0px" y="0px"
	 viewBox="0 0 1200 760" style="enable-background:new 0 0 1200 760;" xml:space="preserve">
<style type="text/css">
	.st0{fill:#322826;}
	.st1{fill:#191413;}
	.st2{fill:#261E1C;}
	.st3{fill:#5B5351;}
	.st4{fill:#5F747E;}
	.st5{fill:#9FACB2;}
	.st6{fill:#303A3F;}
</style>
<title>brown_swatches</title>
<rect x="-542.3" y="289.5" transform="matrix(4.753700e-03 -1 1 4.753700e-03 -922.6591 -62.1212)" class="st0" width="99.5" height="286"/>
<rect x="-549.9" y="329.5" transform="matrix(0.3167 -0.9485 0.9485 0.3167 -789.915 -151.5308)" class="st1" width="99.5" height="286"/>
<rect x="-575" y="376.6" transform="matrix(0.5991 -0.8007 0.8007 0.5991 -626.6744 -212.2655)" class="st2" width="99.5" height="286"/>
<rect x="-599.2" y="389" transform="matrix(0.7583 -0.6519 0.6519 0.7583 -484.5855 -227.7892)" class="st3" width="99.5" height="301.2"/>
<rect x="-96.9" y="-90.9" transform="matrix(0.9734 -0.2291 0.2291 0.9734 -94.7768 83.4106)" class="st4" width="817.6" height="1081.7"/>
<rect x="-365.4" y="220" transform="matrix(0.6046 -0.7966 0.7966 0.6046 -671.7545 376.6124)" class="st5" width="817.6" height="1289.8"/>
<rect x="690.1" y="-276.1" transform="matrix(0.9734 -0.2291 0.2291 0.9734 -31.4258 258.7687)" class="st6" width="817.6" height="1081.7"/>
</svg>
