<?xml version="1.0" encoding="utf-8"?>
<!-- Generator: Adobe Illustrator 19.2.1, SVG Export Plug-In . SVG Version: 6.00 Build 0)  -->
<!DOCTYPE svg PUBLIC "-//W3C//DTD SVG 1.1//EN" "http://www.w3.org/Graphics/SVG/1.1/DTD/svg11.dtd">
<svg version="1.1" xmlns="http://www.w3.org/2000/svg" xmlns:xlink="http://www.w3.org/1999/xlink" x="0px" y="0px"
	 viewBox="0 0 1200 760" style="enable-background:new 0 0 1200 760;" xml:space="preserve">
<style type="text/css">
	.st0{fill:#5F747E;}
	.st1{fill:#9FACB2;}
	.st2{fill:#303A3F;}
	.st3{display:none;}
	.st4{display:inline;fill:#261E1C;}
	.st5{display:inline;fill:#5B5351;}
	.st6{display:inline;fill:#191413;}
	.st7{display:inline;fill:#50323E;}
	.st8{display:inline;fill:#735B65;}
	.st9{display:inline;fill:#28191F;}
</style>
<g id="blue">
	
		<rect x="-97.4" y="-90.9" transform="matrix(0.9734 -0.2291 0.2291 0.9734 -94.7837 83.2999)" class="st0" width="817.6" height="1081.7"/>
	
		<rect x="-365.9" y="220" transform="matrix(0.6046 -0.7966 0.7966 0.6046 -671.9239 376.2197)" class="st1" width="817.6" height="1289.8"/>
	
		<rect x="689.6" y="-276.1" transform="matrix(0.9734 -0.2291 0.2291 0.9734 -31.4327 258.658)" class="st2" width="817.6" height="1081.7"/>
</g>
<g id="brown" class="st3">
	<title>brown_swatches</title>
	
		<rect x="-96.9" y="-90.9" transform="matrix(0.9734 -0.2291 0.2291 0.9734 -94.7768 83.4106)" class="st4" width="817.6" height="1081.7"/>
	
		<rect x="-365.4" y="220" transform="matrix(0.6046 -0.7966 0.7966 0.6046 -671.7545 376.6124)" class="st5" width="817.6" height="1289.8"/>
	
		<rect x="690.1" y="-276.1" transform="matrix(0.9734 -0.2291 0.2291 0.9734 -31.4258 258.7687)" class="st6" width="817.6" height="1081.7"/>
</g>
<g id="red" class="st3">
	
		<rect x="-97.4" y="-90.9" transform="matrix(0.9734 -0.2291 0.2291 0.9734 -94.7837 83.2999)" class="st7" width="817.6" height="1081.7"/>
	
		<rect x="-365.9" y="220" transform="matrix(0.6046 -0.7966 0.7966 0.6046 -671.9239 376.2197)" class="st8" width="817.6" height="1289.8"/>
	
		<rect x="689.6" y="-276.1" transform="matrix(0.9734 -0.2291 0.2291 0.9734 -31.4327 258.658)" class="st9" width="817.6" height="1081.7"/>
</g>
</svg>
