<?xml version="1.0" encoding="utf-8"?>
<!-- Generator: Adobe Illustrator 19.2.1, SVG Export Plug-In . SVG Version: 6.00 Build 0)  -->
<!DOCTYPE svg PUBLIC "-//W3C//DTD SVG 1.1//EN" "http://www.w3.org/Graphics/SVG/1.1/DTD/svg11.dtd">
<svg version="1.1" id="Layer_1" xmlns="http://www.w3.org/2000/svg" xmlns:xlink="http://www.w3.org/1999/xlink" x="0px" y="0px"
	 viewBox="0 0 602.8 245.3" style="enable-background:new 0 0 602.8 245.3;" xml:space="preserve">
<style type="text/css">
	.st0{fill:#1B1464;}
</style>
<g>
	<path class="st0" d="M453.2,177.8c-4.8,0-66.9-175-71.4-174.6C377.1,3.5,543.2,170.7,539,171.4c-4.2,0.7-283.7-148.9-287.4-147.9
		c-3.7,1,324.7,140.5,321.7,141.7c-1.1-0.1-130.4-156-131.5-156.1c-1.1-0.1-70.5,175.6-71.6,175.6c-1.1,0,38.8-176.7,37.7-176.7
		c-1.1,0-15.8,177.1-17,177.1c-2.3,0-32.7-176.7-35-176.6c-2.3,0.1,79.9,174.9,77.7,175.1C431.4,183.6,289,13.1,286.8,13.4
		c-2.2,0.2-21.5,166.5-23.6,166.9c-3-1,244.4-157.2,240.9-157.9c-3.5-0.8-259.6,153.5-263.5,153C236.8,174.7,387.9,5.7,383.7,5.4
		c-4.1-0.3-60.5,175.1-64.8,175.1c-4.6,0-65-175.1-69.4-174.8c-4.5,0.3,157,168.1,152.9,168.7C398.2,175.1,125.9,24.1,122.3,25
		C118.7,25.9,421,171.8,418,173c-1.4-0.2-85.4-160.1-86.9-160.2c-1.5-0.1-113.6,173-115.1,172.9c-1.5-0.1,70.5-175.6,69-175.6
		C283.5,10,72.7,162.8,71.2,162.7c-2.9-1.4,349.9-134.2,346.1-135.3c-3.8-1.1-304.5,143.5-309.1,142.8
		C103.7,169.5,283.7,4,278.7,3.6c-4.8-0.4-72.4,174.1-77.6,174.1C192.4,177.8,82.3,7.9,74.8,8.9C67,10,349.8,156.1,343.9,158.1
		c-5.9,2-444.2-92.3-447.4-89.7c-3.1,2.5,506.6,39.2,506.6,42.1c0,2.8-510.6,38.8-507.6,41.2c3.1,2.6,445.2-90,450.8-88.1
		c5.7,2-286.6,146.1-279.1,147.2C74.4,212,286.7,49,295.1,49.1C298,50.5,30.9,201.2,34.8,202.4c3.8,1.1,304.5-143.5,309.1-142.8
		c4.5,0.8-175.5,166.2-170.5,166.6C178.2,226.6,245.8,52,251,52c4.6,0,65,175.1,69.4,174.8c4.5-0.3-157-168.1-152.9-168.7
		c4.1-0.6,276.5,150.4,280.1,149.5c3.6-0.9-292.9-148.1-290-149.2c1.6,0.2,82.1,161.5,83.8,161.6c1.6,0.1,107.5-173.4,109.2-173.3
		c1.7,0.1-59.3,176-57.6,176.1c1.7,0,24.2-176.9,25.9-176.9c2.3,0,32.7,176.7,35,176.6c2.3-0.1-79.9-174.9-77.7-175.1
		c2.2-0.2,144.7,170.3,146.9,170.1c2.2-0.2,21.5-166.5,23.6-166.9c3,1-244.4,157.2-240.9,157.9c3.5,0.8,259.6-153.5,263.5-153
		c3.9,0.5-147.3,169.5-143.1,169.8c4.1,0.3,60.5-175.1,64.8-175.1c4.8,0,66.9,175,71.4,174.6c4.6-0.3-161.4-167.6-157.3-168.2
		c4.2-0.7,283.7,148.9,287.4,147.9c3.7-1-324.7-140.5-321.7-141.7C271.8,63,401.2,219,402.3,219c1.1,0.1,70.5-175.6,71.6-175.6
		c1.1,0-38.8,176.7-37.7,176.7c1.1,0,15.8-177.1,17-177.1c8.7,0,118.7,169.9,126.3,168.9c7.8-1.1-275-147.2-269.1-149.1
		c5.9-2,444.2,92.3,447.4,89.7c3.1-2.5-506.6-39.2-506.6-42.1c0-2.9,509.7-39.6,506.6-42.1c-3.2-2.6-441.5,91.7-447.4,89.7
		c-5.9-2,276.9-148.1,269.1-149.1C571.9,7.9,461.8,177.8,453.2,177.8z"/>
</g>
</svg>
